<?xml version="1.0" encoding="UTF-8"?>
<!DOCTYPE svg PUBLIC "-//W3C//DTD SVG 1.1//EN" "http://www.w3.org/Graphics/SVG/1.1/DTD/svg11.dtd">
<!-- Creator: CorelDRAW -->
<svg xmlns="http://www.w3.org/2000/svg" xml:space="preserve" width="1.16012in" height="0.310244in" version="1.1" style="shape-rendering:geometricPrecision; text-rendering:geometricPrecision; image-rendering:optimizeQuality; fill-rule:evenodd; clip-rule:evenodd"
viewBox="0 0 149.24 39.91"
 xmlns:xlink="http://www.w3.org/1999/xlink"
 xmlns:xodm="http://www.corel.com/coreldraw/odm/2003">
 <defs>
  <style type="text/css">
   <![CDATA[
    .fil0 {fill:white}
   ]]>
  </style>
 </defs>
 <g id="Camada_x0020_1">
  <metadata id="CorelCorpID_0Corel-Layer"/>
  <path class="fil0" d="M5.49 21.96l-5.49 0 0 -21.45 6.12 0c2.39,0 4.07,0.11 5.04,0.35 0.96,0.23 1.78,0.63 2.46,1.2 0.79,0.65 1.4,1.47 1.81,2.45 0.42,0.99 0.62,2.07 0.62,3.27 0,1.28 -0.2,2.4 -0.61,3.37 -0.41,0.97 -1.01,1.77 -1.82,2.39 -0.6,0.47 -1.32,0.8 -2.14,1.01 -0.82,0.2 -2.14,0.31 -3.94,0.31l-1 0 -1.05 0 0 7.08zm40.44 9.66c0.26,-0.83 0.64,-1.78 1.15,-2.85 0.5,-1.07 1.2,-2.4 2.09,-3.99 -0.16,0.01 -0.58,0.04 -1.26,0.1 -0.69,0.06 -1.23,0.11 -1.62,0.15l0.52 -1.08c0.41,-0.07 0.87,-0.11 1.35,-0.15 0.49,-0.04 1.05,-0.07 1.69,-0.09 2.29,-3.66 4.61,-6.58 6.96,-8.76 2.36,-2.18 4.32,-3.27 5.89,-3.27 0.5,0 0.88,0.13 1.15,0.38 0.26,0.25 0.39,0.62 0.39,1.1 0,0.69 -0.56,2.84 -1.68,6.46 -1.12,3.62 -2.02,6.74 -2.72,9.36 0.06,0.29 0.1,0.56 0.12,0.79 0.03,0.23 0.04,0.43 0.04,0.6 0,0.45 -0.08,0.8 -0.25,1.06 -0.17,0.26 -0.39,0.39 -0.66,0.39 -0.27,0 -0.48,-0.11 -0.62,-0.33 -0.15,-0.22 -0.22,-0.53 -0.22,-0.92 0,-0.23 0.06,-0.79 0.18,-1.67l0.01 -0.11c-0.61,-1.25 -1.57,-2.21 -2.88,-2.87 -1.31,-0.66 -2.97,-1.03 -4.99,-1.12 -0.8,1.4 -1.46,2.68 -2,3.86 -0.54,1.18 -0.92,2.16 -1.15,2.96l-1.48 0zm5.28 -7.87c1.98,0.18 3.58,0.57 4.81,1.16 1.23,0.59 2.17,1.41 2.84,2.48 0.58,-1.92 1.34,-4.34 2.26,-7.27 1.24,-3.93 1.86,-6.1 1.86,-6.53 0,-0.25 -0.06,-0.43 -0.18,-0.54 -0.12,-0.12 -0.3,-0.17 -0.55,-0.17 -1.02,0 -2.59,1.02 -4.71,3.05 -2.12,2.03 -4.23,4.64 -6.32,7.83zm20.31 2.95l0 1.14c-2.15,1.71 -3.67,2.81 -4.58,3.28 -0.9,0.47 -1.76,0.7 -2.55,0.7 -0.91,0 -1.6,-0.27 -2.08,-0.8 -0.48,-0.53 -0.72,-1.31 -0.72,-2.32 0,-0.81 0.17,-1.62 0.5,-2.42 0.33,-0.8 0.82,-1.55 1.46,-2.24 0.75,-0.81 1.57,-1.45 2.47,-1.91 0.89,-0.46 1.75,-0.7 2.56,-0.7 0.54,0 0.98,0.13 1.33,0.38 0.35,0.26 0.52,0.57 0.52,0.95 0,0.14 -0.02,0.3 -0.07,0.49 -0.05,0.18 -0.11,0.38 -0.21,0.6l-0.89 1.96 -1 -0.36 0.85 -1.88c0.07,-0.11 0.11,-0.21 0.14,-0.3 0.03,-0.09 0.04,-0.17 0.04,-0.24 0,-0.18 -0.07,-0.33 -0.19,-0.44 -0.13,-0.11 -0.31,-0.16 -0.55,-0.16 -0.64,0 -1.37,0.24 -2.19,0.71 -0.82,0.47 -1.54,1.08 -2.15,1.83 -0.47,0.56 -0.82,1.17 -1.06,1.81 -0.24,0.64 -0.36,1.31 -0.36,1.99 0,0.7 0.16,1.23 0.46,1.58 0.31,0.35 0.78,0.53 1.41,0.53 1.05,0 3.09,-1.19 6.14,-3.58l0.73 -0.57zm6.03 1.02c0.43,-0.76 0.75,-1.43 0.97,-2.02 0.22,-0.58 0.33,-1.04 0.33,-1.36 0,-0.14 -0.04,-0.26 -0.13,-0.37 -0.09,-0.11 -0.18,-0.17 -0.3,-0.17 -0.26,0 -0.52,0.28 -0.79,0.83 -0.27,0.56 -0.4,1.15 -0.4,1.78 0.01,0.22 0.04,0.44 0.09,0.64 0.04,0.21 0.12,0.43 0.23,0.66zm3.91 -1.13l0 1.13c-0.77,0.61 -1.4,1.04 -1.89,1.28 -0.5,0.25 -0.96,0.37 -1.37,0.37 -0.08,0 -0.21,-0.01 -0.42,-0.03 -0.08,-0.01 -0.13,-0.02 -0.18,-0.03 -0.73,0.84 -1.42,1.47 -2.06,1.88 -0.64,0.41 -1.27,0.62 -1.87,0.62 -0.79,0 -1.41,-0.3 -1.88,-0.89 -0.47,-0.6 -0.7,-1.4 -0.7,-2.42 0,-1.18 0.3,-2.31 0.91,-3.4 0.61,-1.09 1.46,-2.04 2.56,-2.83 0.49,-0.35 1.02,-0.65 1.59,-0.89 0.57,-0.24 0.99,-0.36 1.25,-0.36 0.11,0 0.2,0.04 0.28,0.13 0.08,0.09 0.11,0.19 0.11,0.32 0,0.23 -0.29,0.47 -0.86,0.72 -0.58,0.25 -1.06,0.5 -1.43,0.75 -0.93,0.62 -1.7,1.45 -2.31,2.5 -0.61,1.05 -0.91,2.05 -0.91,3.02 0,0.63 0.16,1.17 0.48,1.61 0.32,0.44 0.7,0.66 1.15,0.66 0.41,0 0.85,-0.17 1.33,-0.5 0.47,-0.34 1.02,-0.86 1.63,-1.57 -0.23,-0.38 -0.41,-0.75 -0.52,-1.11 -0.11,-0.36 -0.17,-0.73 -0.17,-1.11 0,-0.97 0.28,-1.87 0.82,-2.67 0.55,-0.81 1.11,-1.22 1.68,-1.22 0.34,0 0.62,0.15 0.85,0.46 0.23,0.3 0.34,0.69 0.34,1.15 0,0.56 -0.14,1.21 -0.42,1.96 -0.28,0.75 -0.67,1.49 -1.17,2.22l0.06 0c0.31,0 0.69,-0.12 1.14,-0.37 0.44,-0.25 1.11,-0.71 1.98,-1.38zm-0.57 1.55l0 -1.14c0.73,-0.54 1.38,-1.07 1.93,-1.63 0.55,-0.55 0.89,-0.95 1.03,-1.21l1.25 -2.55 1.22 0 -3.4 7.15c2.7,-2.67 4.75,-4.58 6.15,-5.72 1.4,-1.14 2.38,-1.71 2.93,-1.71 0.14,0 0.25,0.06 0.32,0.18 0.07,0.12 0.11,0.3 0.11,0.53 0,0.12 -0.02,0.25 -0.07,0.4 -0.04,0.15 -0.14,0.38 -0.27,0.71l-2.93 6.35c-0.06,0.15 -0.11,0.25 -0.13,0.32 -0.02,0.07 -0.03,0.11 -0.03,0.14 0,0.08 0.01,0.14 0.05,0.18 0.03,0.05 0.07,0.08 0.12,0.09 0.16,0 0.67,-0.31 1.54,-0.94 0.87,-0.62 2,-1.49 3.38,-2.58l0 1.14 -0.65 0.5c-3.05,2.37 -4.9,3.56 -5.54,3.56 -0.16,0 -0.29,-0.08 -0.4,-0.23 -0.11,-0.15 -0.17,-0.35 -0.17,-0.59 0,-0.1 0.03,-0.24 0.09,-0.41 0.06,-0.17 0.14,-0.37 0.26,-0.59l2.77 -5.84c0.16,-0.32 0.25,-0.52 0.29,-0.6 0.04,-0.09 0.06,-0.15 0.06,-0.18 0,-0.09 -0.01,-0.15 -0.03,-0.19 -0.02,-0.04 -0.05,-0.06 -0.08,-0.06 -0.12,0 -0.47,0.22 -1.05,0.65 -0.58,0.43 -1.23,0.99 -1.96,1.65 -0.9,0.79 -1.74,1.58 -2.53,2.39 -0.79,0.8 -1.49,1.57 -2.1,2.3 -0.09,0.11 -0.22,0.27 -0.39,0.47 -0.59,0.77 -1.09,1.15 -1.49,1.15 -0.17,0 -0.31,-0.07 -0.42,-0.2 -0.1,-0.14 -0.15,-0.31 -0.15,-0.53 0,-0.27 0.42,-1.16 1.26,-2.68 0.4,-0.71 0.71,-1.29 0.94,-1.72 -0.35,0.33 -0.69,0.61 -1,0.85 -0.31,0.25 -0.62,0.45 -0.9,0.62zm22.37 -1.44l0 1.14c-2.15,1.71 -3.67,2.81 -4.58,3.28 -0.9,0.47 -1.76,0.7 -2.55,0.7 -0.91,0 -1.6,-0.27 -2.08,-0.8 -0.48,-0.53 -0.72,-1.31 -0.72,-2.32 0,-0.81 0.17,-1.62 0.5,-2.42 0.33,-0.8 0.82,-1.55 1.46,-2.24 0.75,-0.81 1.57,-1.45 2.47,-1.91 0.89,-0.46 1.75,-0.7 2.56,-0.7 0.54,0 0.98,0.13 1.33,0.38 0.35,0.26 0.52,0.57 0.52,0.95 0,0.14 -0.02,0.3 -0.07,0.49 -0.05,0.18 -0.11,0.38 -0.21,0.6l-0.89 1.96 -1 -0.36 0.85 -1.88c0.07,-0.11 0.11,-0.21 0.14,-0.3 0.03,-0.09 0.04,-0.17 0.04,-0.24 0,-0.18 -0.07,-0.33 -0.19,-0.44 -0.13,-0.11 -0.31,-0.16 -0.55,-0.16 -0.64,0 -1.37,0.24 -2.19,0.71 -0.82,0.47 -1.54,1.08 -2.15,1.83 -0.47,0.56 -0.82,1.17 -1.06,1.81 -0.24,0.64 -0.35,1.31 -0.35,1.99 0,0.7 0.16,1.23 0.46,1.58 0.31,0.35 0.78,0.53 1.41,0.53 1.05,0 3.09,-1.19 6.14,-3.58l0.73 -0.57zm-0.4 1.44l0 -1.14c0.45,-0.3 0.92,-0.69 1.41,-1.15 0.48,-0.46 1,-1.02 1.55,-1.69l5.06 -10.81c0.09,-0.18 0.2,-0.44 0.35,-0.76 0.46,-1.05 0.85,-1.57 1.18,-1.57 0.1,0 0.19,0.05 0.26,0.15 0.08,0.1 0.11,0.23 0.11,0.39 0,0.36 -0.68,1.96 -2.03,4.78 -0.65,1.35 -1.17,2.43 -1.55,3.26l-4.31 9.17c2.7,-2.67 4.75,-4.58 6.15,-5.72 1.4,-1.14 2.38,-1.71 2.93,-1.71 0.14,0 0.25,0.06 0.32,0.18 0.07,0.12 0.11,0.3 0.11,0.53 0,0.12 -0.02,0.25 -0.07,0.4 -0.04,0.15 -0.14,0.38 -0.27,0.71l-2.93 6.35c-0.07,0.15 -0.11,0.25 -0.13,0.32 -0.02,0.07 -0.03,0.11 -0.03,0.14 0,0.08 0.01,0.14 0.05,0.18 0.03,0.05 0.07,0.08 0.12,0.09 0.16,0 0.67,-0.31 1.54,-0.94 0.87,-0.62 2,-1.49 3.38,-2.58l0 1.14 -0.65 0.5c-3.05,2.37 -4.9,3.56 -5.54,3.56 -0.16,0 -0.29,-0.08 -0.4,-0.23 -0.11,-0.15 -0.17,-0.35 -0.17,-0.59 0,-0.1 0.03,-0.24 0.09,-0.41 0.06,-0.17 0.15,-0.37 0.26,-0.59l2.77 -5.84c0.16,-0.32 0.25,-0.52 0.29,-0.6 0.04,-0.09 0.06,-0.15 0.06,-0.18 0,-0.09 -0.01,-0.15 -0.03,-0.19 -0.02,-0.04 -0.05,-0.06 -0.08,-0.06 -0.12,0 -0.47,0.22 -1.05,0.65 -0.58,0.43 -1.23,0.99 -1.96,1.65 -0.9,0.79 -1.74,1.58 -2.53,2.39 -0.79,0.8 -1.49,1.57 -2.1,2.3 -0.09,0.11 -0.22,0.27 -0.39,0.47 -0.59,0.77 -1.09,1.15 -1.49,1.15 -0.17,0 -0.31,-0.07 -0.42,-0.2 -0.1,-0.14 -0.15,-0.31 -0.15,-0.53 0,-0.27 0.42,-1.16 1.26,-2.68 0.4,-0.71 0.71,-1.29 0.94,-1.72 -0.35,0.32 -0.68,0.61 -1,0.85 -0.31,0.25 -0.62,0.45 -0.9,0.62zm22.4 -1.44l0 1.14c-2.09,1.67 -3.6,2.75 -4.54,3.24 -0.93,0.49 -1.8,0.74 -2.59,0.74 -0.92,0 -1.64,-0.27 -2.14,-0.82 -0.51,-0.55 -0.76,-1.34 -0.76,-2.35 0,-0.8 0.19,-1.6 0.56,-2.39 0.37,-0.79 0.92,-1.54 1.66,-2.28 0.81,-0.8 1.63,-1.43 2.46,-1.88 0.83,-0.45 1.58,-0.67 2.25,-0.67 0.57,0 1.02,0.14 1.34,0.41 0.32,0.27 0.48,0.66 0.48,1.15 0,1.28 -0.65,2.41 -1.96,3.42 -1.31,1 -2.89,1.51 -4.73,1.51 -0.2,0 -0.36,0 -0.45,-0.01 -0.09,-0 -0.19,-0.01 -0.28,-0.02 -0.04,0.15 -0.08,0.29 -0.09,0.42 -0.02,0.13 -0.03,0.26 -0.03,0.4 0,0.68 0.16,1.2 0.47,1.55 0.31,0.35 0.78,0.53 1.39,0.53 0.69,0 1.48,-0.24 2.36,-0.72 0.88,-0.47 2.41,-1.59 4.62,-3.35zm-8.55 0.17c0.15,0.02 0.3,0.03 0.45,0.04 0.15,0.01 0.3,0.01 0.46,0.01 1.28,0 2.47,-0.43 3.55,-1.28 1.08,-0.85 1.62,-1.69 1.62,-2.51 0,-0.22 -0.08,-0.4 -0.23,-0.53 -0.16,-0.13 -0.36,-0.19 -0.62,-0.19 -0.74,0 -1.63,0.43 -2.67,1.27 -1.04,0.85 -1.89,1.91 -2.56,3.19zm20.34 -0.17l0 1.14c-1.34,0.97 -2.6,1.99 -3.79,3.07 -1.19,1.07 -2.32,2.23 -3.42,3.47 -0.9,2.31 -1.57,3.81 -1.99,4.5 -0.43,0.69 -0.84,1.03 -1.25,1.03 -0.18,0 -0.32,-0.07 -0.43,-0.21 -0.11,-0.15 -0.17,-0.34 -0.17,-0.58 0,-0.76 0.3,-1.71 0.89,-2.85 0.6,-1.15 1.38,-2.22 2.35,-3.23l2.32 -5.19c-1.09,1.43 -2,2.46 -2.73,3.08 -0.73,0.62 -1.39,0.92 -1.97,0.92 -0.71,0 -1.29,-0.31 -1.75,-0.92 -0.45,-0.61 -0.68,-1.4 -0.68,-2.37 0,-0.75 0.16,-1.46 0.47,-2.13 0.31,-0.66 0.79,-1.31 1.44,-1.94 0.95,-0.93 2.03,-1.68 3.24,-2.23 1.2,-0.55 2.32,-0.83 3.34,-0.83 0.6,0 1.14,0.1 1.6,0.29 0.46,0.19 0.87,0.5 1.22,0.91l-0.6 0.84c-0.34,-0.38 -0.69,-0.65 -1.05,-0.82 -0.36,-0.17 -0.77,-0.26 -1.23,-0.26 -0.71,0 -1.54,0.21 -2.52,0.63 -0.98,0.42 -1.87,0.97 -2.68,1.65 -0.72,0.59 -1.26,1.22 -1.62,1.89 -0.36,0.67 -0.54,1.38 -0.54,2.12 0,0.67 0.12,1.17 0.37,1.52 0.24,0.35 0.6,0.52 1.06,0.52 0.52,0 1.28,-0.51 2.3,-1.53 1.01,-1.02 2.33,-2.62 3.96,-4.8l1.16 0.09 -3.21 7c0.86,-0.74 1.77,-1.5 2.73,-2.28 0.96,-0.78 2.01,-1.6 3.15,-2.48zm5.97 1.02c0.43,-0.76 0.75,-1.43 0.97,-2.02 0.22,-0.58 0.33,-1.04 0.33,-1.36 0,-0.14 -0.04,-0.26 -0.13,-0.37 -0.09,-0.11 -0.18,-0.17 -0.3,-0.17 -0.26,0 -0.52,0.28 -0.79,0.83 -0.27,0.56 -0.4,1.15 -0.4,1.78 0.01,0.22 0.04,0.44 0.09,0.64 0.04,0.21 0.12,0.43 0.23,0.66zm3.92 -1.13l0 1.13c-0.77,0.61 -1.4,1.04 -1.89,1.28 -0.5,0.25 -0.96,0.37 -1.37,0.37 -0.08,0 -0.21,-0.01 -0.42,-0.03 -0.08,-0.01 -0.13,-0.02 -0.18,-0.03 -0.73,0.84 -1.42,1.47 -2.06,1.88 -0.64,0.41 -1.27,0.62 -1.87,0.62 -0.79,0 -1.41,-0.3 -1.88,-0.89 -0.47,-0.6 -0.7,-1.4 -0.7,-2.42 0,-1.18 0.3,-2.31 0.91,-3.4 0.61,-1.09 1.46,-2.04 2.56,-2.83 0.49,-0.35 1.02,-0.65 1.59,-0.89 0.57,-0.24 0.99,-0.36 1.25,-0.36 0.11,0 0.2,0.04 0.28,0.13 0.08,0.09 0.11,0.19 0.11,0.32 0,0.23 -0.29,0.47 -0.86,0.72 -0.58,0.25 -1.06,0.5 -1.43,0.75 -0.93,0.62 -1.7,1.45 -2.31,2.5 -0.61,1.05 -0.91,2.05 -0.91,3.02 0,0.63 0.16,1.17 0.48,1.61 0.32,0.44 0.7,0.66 1.15,0.66 0.41,0 0.85,-0.17 1.33,-0.5 0.47,-0.34 1.02,-0.86 1.63,-1.57 -0.23,-0.38 -0.41,-0.75 -0.52,-1.11 -0.11,-0.36 -0.17,-0.73 -0.17,-1.11 0,-0.97 0.27,-1.87 0.82,-2.67 0.55,-0.81 1.11,-1.22 1.68,-1.22 0.34,0 0.62,0.15 0.85,0.46 0.23,0.3 0.34,0.69 0.34,1.15 0,0.56 -0.14,1.21 -0.42,1.96 -0.28,0.75 -0.67,1.49 -1.17,2.22l0.06 0c0.31,0 0.69,-0.12 1.14,-0.37 0.44,-0.25 1.11,-0.71 1.98,-1.38zm-141.45 -16.43l1.11 0c1.4,0 2.38,-0.19 2.94,-0.58 0.55,-0.38 0.83,-1.04 0.83,-1.97 0,-0.9 -0.28,-1.54 -0.82,-1.92 -0.55,-0.38 -1.52,-0.57 -2.9,-0.57l-1.17 0 0 5.04zm35.54 1.11c0,1.54 -0.28,2.99 -0.85,4.33 -0.56,1.35 -1.39,2.56 -2.47,3.62 -1.09,1.05 -2.34,1.86 -3.75,2.44 -1.4,0.57 -2.86,0.85 -4.37,0.85 -1.54,0 -3.01,-0.28 -4.4,-0.85 -1.4,-0.58 -2.63,-1.39 -3.69,-2.44 -1.1,-1.06 -1.94,-2.27 -2.52,-3.63 -0.57,-1.36 -0.85,-2.79 -0.85,-4.32 0,-1.54 0.28,-2.97 0.85,-4.33 0.58,-1.35 1.41,-2.56 2.52,-3.62 1.07,-1.05 2.29,-1.86 3.69,-2.44 1.4,-0.57 2.87,-0.85 4.4,-0.85 1.52,0 2.99,0.29 4.4,0.85 1.41,0.58 2.65,1.39 3.72,2.44 1.07,1.05 1.89,2.26 2.47,3.62 0.57,1.35 0.85,2.8 0.85,4.33zm-11.46 6.3c1.62,0 2.96,-0.59 4.02,-1.78 1.06,-1.19 1.59,-2.7 1.59,-4.51 0,-1.8 -0.53,-3.3 -1.61,-4.5 -1.07,-1.2 -2.41,-1.8 -4,-1.8 -1.62,0 -2.96,0.6 -4.02,1.79 -1.06,1.19 -1.59,2.7 -1.59,4.5 0,1.83 0.52,3.34 1.56,4.52 1.04,1.19 2.4,1.77 4.04,1.77zm15 -17.07l5.82 0 0 10.43c0,1.53 0.04,2.64 0.12,3.3 0.08,0.67 0.21,1.23 0.4,1.68 0.22,0.55 0.61,0.96 1.17,1.26 0.22,0.11 0.45,0.2 0.71,0.27 -1.17,1.42 -2.25,2.93 -3.25,4.45l-0.08 -0.03c-1.27,-0.43 -2.28,-1.09 -3.02,-1.95 -0.67,-0.8 -1.14,-1.75 -1.43,-2.86 -0.28,-1.12 -0.43,-2.85 -0.43,-5.21l0 -2.22 0 -9.11zm13.24 11.98c0.01,-0.46 0.02,-0.97 0.02,-1.55l0 -1.46 0 -8.97 5.82 0 0 10.07c-0.31,-0.09 -0.63,-0.13 -0.96,-0.13 -1.69,0 -3.41,0.94 -4.88,2.04zm1.54 9.17c-0.19,0.08 -0.38,0.15 -0.58,0.22 -1.28,0.44 -2.83,0.65 -4.65,0.65 -0.2,0 -0.39,-0 -0.58,-0.01 1.45,-2.04 3.05,-4 4.84,-5.72 0.52,-0.5 2.16,-2.01 3.25,-2.53 -0.35,1.6 -1.3,4.25 -1.68,5.48l-0.6 1.91zm9.69 -6.63c0.87,0.99 1.72,1.72 2.57,2.21 0.84,0.49 1.68,0.73 2.52,0.73 0.78,0 1.42,-0.21 1.92,-0.63 0.5,-0.42 0.75,-0.95 0.75,-1.59 0,-0.71 -0.21,-1.26 -0.65,-1.64 -0.44,-0.38 -1.42,-0.79 -2.95,-1.19 -2.1,-0.57 -3.59,-1.31 -4.46,-2.21 -0.87,-0.91 -1.31,-2.15 -1.31,-3.73 0,-2.05 0.68,-3.72 2.06,-5.02 1.37,-1.3 3.15,-1.94 5.34,-1.94 1.19,0 2.3,0.16 3.36,0.48 1.06,0.32 2.06,0.8 3.01,1.44l-1.83 4.2c-0.67,-0.56 -1.35,-0.99 -2.05,-1.28 -0.69,-0.28 -1.38,-0.43 -2.07,-0.43 -0.7,0 -1.27,0.17 -1.71,0.5 -0.44,0.33 -0.66,0.77 -0.66,1.3 0,0.53 0.19,0.96 0.57,1.29 0.38,0.32 1.13,0.63 2.23,0.92l0.27 0.08c2.38,0.64 3.95,1.35 4.7,2.12 0.51,0.52 0.89,1.16 1.16,1.89 0.27,0.74 0.4,1.55 0.4,2.45 0,2.27 -0.74,4.1 -2.24,5.48 -0.31,0.28 -0.63,0.54 -0.98,0.76 -0.05,-0.32 -0.18,-0.62 -0.38,-0.85 -0.28,-0.36 -0.73,-0.57 -1.21,-0.57 -0.57,0 -1.21,0.24 -1.72,0.46 -0.65,0.27 -1.27,0.61 -1.84,1.03 -0.48,0.35 -0.93,0.74 -1.35,1.16 -0.31,-0.04 -0.61,-0.09 -0.91,-0.16 -0.12,-0.59 -0.47,-1.09 -0.97,-1.46 -0.6,-0.44 -1.32,-0.62 -2.05,-0.62 -0.38,0 -0.74,0.04 -1.11,0.11 -0.36,-0.28 -0.72,-0.59 -1.07,-0.93l2.63 -4.35zm22.15 -1.08l5.81 0 -2.18 -7.08c-0.06,-0.22 -0.16,-0.56 -0.28,-1.04 -0.12,-0.48 -0.27,-1.1 -0.46,-1.85 -0.12,0.52 -0.25,1.03 -0.37,1.51 -0.12,0.47 -0.25,0.93 -0.37,1.37l-2.15 7.08zm-8.19 8.01l7.4 -21.45 7.32 0 7.41 21.45 -1.87 0c-0.17,-0.45 -0.47,-0.84 -0.88,-1.14 -0.6,-0.44 -1.32,-0.62 -2.05,-0.62 -0.49,0 -0.98,0.07 -1.45,0.19l-0.64 -2.26 -8.3 0 -1.02 3.51c-0.15,0.11 -0.29,0.23 -0.42,0.33l-0.96 0 0.74 -1.56 -3.92 0 -0.77 1.56 -0.59 0zm24.18 -3.54l0 -17.9 4.47 0c3.33,0 5.68,0.15 7.06,0.47 1.38,0.31 2.59,0.84 3.64,1.56 1.36,0.95 2.39,2.17 3.09,3.64 0.71,1.48 1.06,3.17 1.06,5.06 0,1.9 -0.35,3.58 -1.06,5.06 -0.7,1.48 -1.73,2.69 -3.09,3.64 -0.12,0.09 -0.25,0.17 -0.37,0.25 -0.93,0.04 -1.83,0.38 -2.63,0.82 -0.31,0.17 -0.62,0.36 -0.91,0.56 -0.74,0.14 -1.67,0.24 -2.79,0.31 -0.02,-0.34 -0.1,-0.68 -0.28,-1 -0.31,-0.49 -0.81,-0.77 -1.37,-0.77 -1.15,0 -2.61,1.1 -3.53,1.85l-0.99 0 0.86 -1.84c0.51,-1.09 1.03,-2.17 1.55,-3.25 0.2,-0.42 0.65,-1.32 1.09,-2.29l0 2.57 0.98 0c2.3,0 3.97,-0.47 5.03,-1.41 1.05,-0.94 1.58,-2.43 1.58,-4.49 0,-2.05 -0.52,-3.55 -1.58,-4.51 -1.05,-0.95 -2.73,-1.43 -5.03,-1.43l-0.98 0 0 4.59c-0.17,-0.07 -0.35,-0.1 -0.54,-0.1 -1.22,0 -1.88,1.35 -2.29,2.29 -0.11,0.24 -0.23,0.5 -0.35,0.75l-2.61 5.58zm28.13 -4.47l5.81 0 -2.18 -7.08c-0.06,-0.22 -0.16,-0.56 -0.28,-1.04 -0.12,-0.48 -0.27,-1.1 -0.46,-1.85 -0.12,0.52 -0.25,1.03 -0.37,1.51 -0.12,0.47 -0.25,0.93 -0.37,1.37l-2.15 7.08zm-8.19 8.01l7.4 -21.45 7.32 0 7.41 21.45 -3.53 0c-0.34,-0.32 -0.74,-0.53 -1.21,-0.6 -0.02,-0.37 -0.16,-0.73 -0.4,-0.99 -0.28,-0.36 -0.73,-0.57 -1.21,-0.57l-0.08 0 -0.48 -1.68 -8.3 0 -0.61 2.1c-0.16,-0.01 -0.32,-0.02 -0.49,-0.02 -1.34,0 -2.65,0.39 -3.85,0.95 -0.52,0.24 -1.02,0.51 -1.5,0.82l-0.48 0z"/>
 </g>
</svg>
